<?xml version="1.0" encoding="utf-8"?>
<!-- Generator: Adobe Illustrator 16.0.4, SVG Export Plug-In . SVG Version: 6.00 Build 0)  -->
<!DOCTYPE svg PUBLIC "-//W3C//DTD SVG 1.1//EN" "http://www.w3.org/Graphics/SVG/1.1/DTD/svg11.dtd">
<svg version="1.1" id="Layer_1" xmlns="http://www.w3.org/2000/svg" xmlns:xlink="http://www.w3.org/1999/xlink" x="0px" y="0px"
	 width="951.096px" height="828.083px" viewBox="0 0 951.096 828.083" enable-background="new 0 0 951.096 828.083"
	 xml:space="preserve">
<g>
	<g>
		<path fill="#D8D8D8" d="M365.578,664.116c-4.705-72.671-54.334-141.403-119.451-163.392
			c-70.354-23.747-170.885,14.287-222.812-56.764c-16.387,105.67,87.732,218.953,177.303,237.091
			c76.992,15.541,181.42-16.691,204.436,91.992c19.131-28.085-40.922-92.898-58.693-112.447
			c-54.654-60.057-124.381-89.937-197.584-112.534C232.955,562.28,305.713,595.349,365.578,664.116"/>
		<path fill="#D8D8D8" d="M402.723,591.045c-31.535-133.337,20.742-275.473,125.785-350.879
			c113.475-81.451,315.283-68.35,369.607-224.72c87.672,181.093-37.354,442.209-188.533,524.114
			c-129.957,70.371-316.01,66.016-297.559,274.184c-49.936-40.056,2.895-185.832,24.125-230.783
			c20.377-43.156,45.893-100.879,95.426-148.478c51.885-49.847,109.52-79.431,109.52-79.431l49.568,36.728
			c0,0,12.074-5.697,18.92-10.019c7.371-4.966,11.727-10.628,11.727-10.628l-48.018-31.953c0,0,25.541-15.524,31.918-19.531
			c4.531-2.84,23.695-16.97,23.695-16.97s-11.463-9.287-14.564-11.081c-7.248-4.199-12.162-6.081-12.162-6.081
			s-16.098,10.41-30.002,18.242c-13.887,7.84-29.967,15.646-29.967,15.646l-44.777-29.967c0,0-5.227,1.716-13.484,6.951
			c-10.229,6.464-11.744,7.806-11.744,7.806s40.004,28.939,39.133,29.549c-27.807,19.566-56.068,29.114-93.875,68.681
			C478.207,443.474,430.207,484.835,402.723,591.045"/>
	</g>
</g>
<g>
</g>
<g>
</g>
<g>
</g>
<g>
</g>
<g>
</g>
<g>
</g>
<g>
</g>
<g>
</g>
<g>
</g>
<g>
</g>
<g>
</g>
<g>
</g>
<g>
</g>
<g>
</g>
<g>
</g>
</svg>
