<?xml version="1.0" encoding="utf-8"?>
<!-- Generator: Adobe Illustrator 16.0.4, SVG Export Plug-In . SVG Version: 6.00 Build 0)  -->
<!DOCTYPE svg PUBLIC "-//W3C//DTD SVG 1.1//EN" "http://www.w3.org/Graphics/SVG/1.1/DTD/svg11.dtd">
<svg version="1.1" id="Layer_1" xmlns="http://www.w3.org/2000/svg" xmlns:xlink="http://www.w3.org/1999/xlink" x="0px" y="0px"
	 width="951.096px" height="933.094px" viewBox="0 0 951.096 933.094" enable-background="new 0 0 951.096 933.094"
	 xml:space="preserve">
<g>
	<g>
		<path fill="#676767" d="M413.217,606.329c-2.722-42.025-31.415-81.771-69.064-94.482c-40.671-13.723-98.799,8.267-128.818-32.812
			c-9.477,61.1,50.725,126.588,102.512,137.068c44.513,8.992,100.846-9.646,114.147,53.19
			c11.059-16.238-19.616-53.718-29.892-65.004c-31.594-34.729-71.908-52.001-114.232-65.068
			C336.542,547.445,378.602,566.556,413.217,606.329"/>
		<path fill="#676767" d="M434.693,564.075c-18.234-77.097,11.991-159.271,72.721-202.871
			c65.609-47.095,182.286-39.514,213.701-129.923c50.683,104.703-21.598,255.663-109.01,303.023
			c-75.138,40.687-186.755,38.163-176.088,158.518c-28.864-23.149,5.729-107.436,17.999-133.421
			c11.778-24.96,26.534-58.328,55.18-85.847c29.989-28.813,63.313-45.926,63.313-45.926l28.658,21.236c0,0,6.977-3.299,10.938-5.792
			c4.261-2.875,6.775-6.149,6.775-6.149l-27.761-18.473c0,0,14.764-8.976,18.462-11.29c2.608-1.644,13.702-9.812,13.702-9.812
			s-6.634-5.369-8.422-6.409c-4.204-2.43-7.04-3.517-7.04-3.517s-9.299,6.021-17.336,10.553c-8.037,4.532-17.329,9.047-17.329,9.047
			l-25.894-17.326c0,0-3.014,0.986-7.795,4.019c-5.914,3.73-6.782,4.51-6.782,4.51s23.12,16.734,22.621,17.087
			c-16.089,11.308-32.427,16.829-54.287,39.701C478.335,478.757,450.582,502.67,434.693,564.075"/>
	</g>
</g>
<g>
	<path fill="#676767" d="M771.199,792.669c-176.7,158.938-448.823,148.983-613.435-22.459l-5.347,4.967
		c167.345,174.377,444.104,184.511,623.755,22.837L771.199,792.669z M170.284,146.084l-4.963-5.344
		C-9.061,308.078-19.192,584.846,142.484,764.489l5.344-4.967C-11.116,582.815-1.155,310.692,170.284,146.084z M809.689,164.325
		l-5.345,4.966c158.944,176.708,148.983,448.83-22.459,613.445l4.975,5.345C961.238,620.735,971.363,343.975,809.689,164.325z
		 M176.009,130.808l4.966,5.344c176.7-158.951,448.83-148.983,613.439,22.452l5.344-4.967
		C632.412-20.74,355.652-30.873,176.009,130.808z"/>
</g>
</svg>
